<?xml version="1.0" encoding="UTF-8"?>
<svg version="1.1" xmlns="http://www.w3.org/2000/svg" width="377" height="36">
<path d="M0 0 C2.20801017 -0.00953475 4.41501819 -0.04046677 6.62280273 -0.07226562 C16.31392312 -0.14252962 25.1426801 0.95542639 34.57397461 3.24023438 C34.57397461 3.90023438 34.57397461 4.56023438 34.57397461 5.24023438 C35.23397461 5.24023438 35.89397461 5.24023438 36.57397461 5.24023438 C36.57397461 7.22023438 36.57397461 9.20023438 36.57397461 11.24023438 C37.56397461 11.24023438 38.55397461 11.24023438 39.57397461 11.24023438 C39.57397461 10.58023437 39.57397461 9.92023437 39.57397461 9.24023438 C43.28840807 8.38673404 46.76459399 8.07702889 50.57397461 8.05273438 C52.08991211 8.03146484 52.08991211 8.03146484 53.63647461 8.00976562 C56.66256651 8.24718507 58.83625218 8.96699214 61.57397461 10.24023438 C61.57397461 10.90023438 61.57397461 11.56023438 61.57397461 12.24023438 C62.56397461 12.24023438 63.55397461 12.24023438 64.57397461 12.24023438 C64.57397461 12.90023438 64.57397461 13.56023438 64.57397461 14.24023438 C65.23397461 14.24023438 65.89397461 14.24023438 66.57397461 14.24023438 C66.57397461 15.23023438 66.57397461 16.22023438 66.57397461 17.24023438 C68.05897461 17.73523437 68.05897461 17.73523437 69.57397461 18.24023438 C69.57397461 18.90023438 69.57397461 19.56023438 69.57397461 20.24023438 C70.23397461 20.24023438 70.89397461 20.24023438 71.57397461 20.24023438 C71.57397461 21.89023437 71.57397461 23.54023438 71.57397461 25.24023438 C66.62397461 25.24023438 61.67397461 25.24023438 56.57397461 25.24023438 C56.57397461 24.58023437 56.57397461 23.92023437 56.57397461 23.24023438 C55.91397461 23.24023438 55.25397461 23.24023438 54.57397461 23.24023438 C54.57397461 22.58023437 54.57397461 21.92023437 54.57397461 21.24023438 C50.28397461 21.24023438 45.99397461 21.24023438 41.57397461 21.24023438 C41.57397461 21.90023438 41.57397461 22.56023438 41.57397461 23.24023438 C40.91397461 23.24023438 40.25397461 23.24023438 39.57397461 23.24023438 C39.57397461 23.90023438 39.57397461 24.56023438 39.57397461 25.24023438 C36.27397461 25.24023438 32.97397461 25.24023438 29.57397461 25.24023438 C29.57397461 23.92023437 29.57397461 22.60023437 29.57397461 21.24023438 C30.23397461 21.24023438 30.89397461 21.24023438 31.57397461 21.24023438 C31.57397461 20.25023438 31.57397461 19.26023437 31.57397461 18.24023438 C32.56397461 18.24023438 33.55397461 18.24023438 34.57397461 18.24023438 C34.57397461 17.25023438 34.57397461 16.26023437 34.57397461 15.24023438 C35.23397461 15.24023438 35.89397461 15.24023438 36.57397461 15.24023438 C36.57397461 14.25023437 36.57397461 13.26023437 36.57397461 12.24023438 C36.00437012 12.4488208 35.43476562 12.65740723 34.84790039 12.87231445 C27.68148382 15.28179919 20.97239008 15.77464162 13.44897461 15.92773438 C12.30170898 15.96189453 11.15444336 15.99605469 9.97241211 16.03125 C7.17303087 16.11289862 4.37393011 16.1823153 1.57397461 16.24023438 C1.57397461 19.21023437 1.57397461 22.18023438 1.57397461 25.24023438 C-4.03602539 25.24023438 -9.64602539 25.24023438 -15.42602539 25.24023438 C-15.42602539 17.32023437 -15.42602539 9.40023438 -15.42602539 1.24023438 C-10.98148833 -0.98203416 -4.94114801 0.01285502 0 0 Z M1.57397461 4.24023438 C1.57397461 6.88023438 1.57397461 9.52023438 1.57397461 12.24023438 C3.69890602 12.26717013 5.82393373 12.28660066 7.94897461 12.30273438 C9.72401367 12.32013672 9.72401367 12.32013672 11.53491211 12.33789062 C14.49318982 12.4549003 14.49318982 12.4549003 16.57397461 11.24023438 C16.57397461 9.26023437 16.57397461 7.28023437 16.57397461 5.24023438 C14.94946042 4.90454141 13.32434544 4.57175477 11.69897461 4.24023438 C10.79405273 4.05460938 9.88913086 3.86898438 8.95678711 3.67773438 C5.82983781 3.10360598 4.66561622 3.20968717 1.57397461 4.24023438 Z M46.57397461 14.24023438 C46.57397461 15.23023438 46.57397461 16.22023438 46.57397461 17.24023438 C47.56397461 17.24023438 48.55397461 17.24023438 49.57397461 17.24023438 C49.57397461 16.25023437 49.57397461 15.26023437 49.57397461 14.24023438 C48.58397461 14.24023438 47.59397461 14.24023438 46.57397461 14.24023438 Z " fill="#1B336D" transform="translate(74.426025390625,2.759765625)"/>
<path d="M0 0 C1.8817115 -0.00472824 1.8817115 -0.00472824 3.80143738 -0.009552 C5.16100093 -0.00776258 6.52056416 -0.00571172 7.88012695 -0.00341797 C9.28066525 -0.00409196 10.68120343 -0.00506279 12.08174133 -0.00631714 C15.00942098 -0.00778816 17.93707002 -0.00565775 20.86474609 -0.00097656 C24.62091076 0.00473624 28.37700422 0.00142819 32.13316631 -0.00454903 C35.02157633 -0.00815724 37.90996937 -0.00701513 40.7983799 -0.00442123 C42.1838971 -0.00375351 43.56941584 -0.00457503 44.95493126 -0.00690079 C46.88662055 -0.00943323 48.81831524 -0.00489068 50.75 0 C51.84966599 0.00079559 52.94933197 0.00159119 54.08232117 0.00241089 C56.6809082 0.12939453 56.6809082 0.12939453 58.6809082 1.12939453 C58.6809082 1.78939453 58.6809082 2.44939453 58.6809082 3.12939453 C56.3709082 3.12939453 54.0609082 3.12939453 51.6809082 3.12939453 C51.6809082 7.41939453 51.6809082 11.70939453 51.6809082 16.12939453 C48.45808408 17.20366924 46.06579667 17.26269083 42.6809082 17.25439453 C41.6290332 17.25697266 40.5771582 17.25955078 39.4934082 17.26220703 C36.6809082 17.12939453 36.6809082 17.12939453 33.6809082 16.12939453 C33.1859082 10.18939453 33.1859082 10.18939453 32.6809082 4.12939453 C26.0329486 3.21639906 19.80621923 3.14001298 13.1184082 3.56689453 C12.20510742 3.61910156 11.29180664 3.67130859 10.35083008 3.72509766 C8.1270374 3.85316949 5.90388884 3.98803412 3.6809082 4.12939453 C3.6809082 4.78939453 3.6809082 5.44939453 3.6809082 6.12939453 C8.6309082 6.45939453 13.5809082 6.78939453 18.6809082 7.12939453 C18.6809082 7.78939453 18.6809082 8.44939453 18.6809082 9.12939453 C15.79674938 10.57147394 13.26369292 10.2233434 10.0559082 10.19189453 C8.86739258 10.18287109 7.67887695 10.17384766 6.4543457 10.16455078 C5.53911133 10.15294922 4.62387695 10.14134766 3.6809082 10.12939453 C3.6809082 11.11939453 3.6809082 12.10939453 3.6809082 13.12939453 C10.2809082 13.45939453 16.8809082 13.78939453 23.6809082 14.12939453 C23.6809082 15.11939453 23.6809082 16.10939453 23.6809082 17.12939453 C19.17855225 17.15411812 14.67623584 17.17226572 10.17382812 17.18432617 C8.6422456 17.18935414 7.11066787 17.19617738 5.57910156 17.20483398 C3.37734798 17.21696682 1.17565787 17.22263821 -1.02612305 17.22705078 C-1.71060013 17.23221207 -2.39507721 17.23737335 -3.10029602 17.24269104 C-6.12815421 17.24304814 -8.42059322 17.09556072 -11.3190918 16.12939453 C-11.3190918 11.17939453 -11.3190918 6.22939453 -11.3190918 1.12939453 C-7.26350166 0.3182765 -4.07600639 0.00294255 0 0 Z " fill="#354C7F" transform="translate(259.319091796875,10.87060546875)"/>
<path d="M0 0 C2.45840605 -0.02691685 4.91651882 -0.04679802 7.375 -0.0625 C8.07367188 -0.07087891 8.77234375 -0.07925781 9.4921875 -0.08789062 C14.7734375 -0.11328125 14.7734375 -0.11328125 17 1 C17 8.92 17 16.84 17 25 C12.76709081 27.11645459 7.2364781 26.22703998 2.58105469 26.24023438 C0.53537654 26.24983399 -1.50924986 26.28080315 -3.5546875 26.3125 C-11.95787646 26.34551842 -19.40057651 25.79971175 -27 22 C-27 21.34 -27 20.68 -27 20 C-27.99 20 -28.98 20 -30 20 C-30 18.02 -30 16.04 -30 14 C-19.73908361 9.47930938 -11.10489117 8.83342663 0 9 C0 6.03 0 3.06 0 0 Z M-12 14 C-13.16210219 16.39351495 -13.16210219 16.39351495 -13 19 C-11.48656345 21.0179154 -10.25060133 21.87469934 -8 23 C-6.62657169 23.0689472 -5.24997898 23.08467708 -3.875 23.0625 C-2.59625 23.041875 -1.3175 23.02125 0 23 C0 19.37 0 15.74 0 12 C-6.28787508 11.72294844 -6.28787508 11.72294844 -12 14 Z " fill="#213A77" transform="translate(176,2)"/>
<path d="M0 0 C0 0.66 0 1.32 0 2 C-1.60407328 2.02708567 -3.2082785 2.04643483 -4.8125 2.0625 C-6.15248047 2.07990234 -6.15248047 2.07990234 -7.51953125 2.09765625 C-10 2 -10 2 -13 1 C-18.04936467 0.70901966 -23.08614397 0.68963839 -28 2 C-28 4.31 -28 6.62 -28 9 C-23.68803391 9.94324258 -19.37934119 10.48041715 -15 11 C-15 10.34 -15 9.68 -15 9 C-14.34 9 -13.68 9 -13 9 C-13 7.68 -13 6.36 -13 5 C-10.87506859 4.97306425 -8.75004088 4.95363372 -6.625 4.9375 C-5.44164062 4.92589844 -4.25828125 4.91429687 -3.0390625 4.90234375 C0 5 0 5 2 6 C2 10.29 2 14.58 2 19 C-0.88415883 20.44207941 -3.41721528 20.09394887 -6.625 20.0625 C-7.81351563 20.05347656 -9.00203125 20.04445313 -10.2265625 20.03515625 C-11.14179688 20.02355469 -12.05703125 20.01195313 -13 20 C-13 18.02 -13 16.04 -13 14 C-13.68707031 14.17015625 -14.37414062 14.3403125 -15.08203125 14.515625 C-24.10370342 16.01319843 -33.5122637 14.10956238 -42 11 C-42 10.34 -42 9.68 -42 9 C-42.99 9 -43.98 9 -45 9 C-45 6.69 -45 4.38 -45 2 C-43.43979133 1.34865075 -41.87671421 0.70417036 -40.3125 0.0625 C-39.44238281 -0.29714844 -38.57226562 -0.65679687 -37.67578125 -1.02734375 C-26.60671424 -5.05099001 -10.74927285 -4.7523101 0 0 Z " fill="#1D3671" transform="translate(241,14)"/>
<path d="M0 0 C2.2407623 -0.0021555 4.48100662 -0.02022126 6.72167969 -0.03930664 C15.00291099 -0.07260115 23.37233644 -0.08351775 31.40917969 2.18530273 C32.06917969 2.84530273 32.72917969 3.50530273 33.40917969 4.18530273 C32.85697754 4.11384033 32.30477539 4.04237793 31.73583984 3.96875 C24.07663885 3.08129957 16.48689521 3.07123976 8.78417969 3.12280273 C6.84865234 3.12957031 6.84865234 3.12957031 4.87402344 3.13647461 C1.71902593 3.14815979 -1.43587169 3.16454229 -4.59082031 3.18530273 C-4.26082031 3.84530273 -3.93082031 4.50530273 -3.59082031 5.18530273 C-3.59082031 7.82530273 -3.59082031 10.46530273 -3.59082031 13.18530273 C3.00917969 12.52530273 9.60917969 11.86530273 16.40917969 11.18530273 C16.40917969 9.53530273 16.40917969 7.88530273 16.40917969 6.18530273 C18.38917969 6.18530273 20.36917969 6.18530273 22.40917969 6.18530273 C22.40917969 7.83530273 22.40917969 9.48530273 22.40917969 11.18530273 C20.42917969 12.17530273 18.44917969 13.16530273 16.40917969 14.18530273 C16.40917969 14.51530273 16.40917969 14.84530273 16.40917969 15.18530273 C11.45917969 15.51530273 6.50917969 15.84530273 1.40917969 16.18530273 C1.40917969 19.15530273 1.40917969 22.12530273 1.40917969 25.18530273 C-4.20082031 25.18530273 -9.81082031 25.18530273 -15.59082031 25.18530273 C-15.59082031 17.26530273 -15.59082031 9.34530273 -15.59082031 1.18530273 C-11.11552604 -1.0523444 -4.97925246 -0.0005354 0 0 Z " fill="#435B94" transform="translate(74.5908203125,2.814697265625)"/>
<path d="M0 0 C4.64070253 -0.02499343 9.28136461 -0.04299677 13.92211914 -0.05493164 C15.49601933 -0.05991488 17.069915 -0.0667039 18.64379883 -0.07543945 C27.48603482 -0.12323532 36.2050103 -0.0673356 45 1 C45 1.66 45 2.32 45 3 C45.66 3 46.32 3 47 3 C47.495 6.465 47.495 6.465 48 10 C41.1052945 12.20211126 34.28800034 14.09819183 27 13 C26.34 12.34 25.68 11.68 25 11 C27.64 10.34 30.28 9.68 33 9 C33 7.35 33 5.7 33 4 C32.21625 4.04125 31.4325 4.0825 30.625 4.125 C26.73850439 3.99098291 23.24542836 3.29753821 19.46484375 2.4375 C16.92551007 1.98677833 14.57339158 1.92660559 12 2 C12 4.64 12 7.28 12 10 C13.98 10 15.96 10 18 10 C18 10.33 18 10.66 18 11 C14.37 11 10.74 11 7 11 C6.67 7.7 6.34 4.4 6 1 C4.02 1 2.04 1 0 1 C0 0.67 0 0.34 0 0 Z " fill="#162F6D" transform="translate(64,5)"/>
<path d="M0 0 C3.63 0 7.26 0 11 0 C11 7.59 11 15.18 11 23 C3 23 3 23 0 22 C0 14.74 0 7.48 0 0 Z " fill="#132F71" transform="translate(182,4)"/>
<path d="M0 0 C0 0.33 0 0.66 0 1 C-3.96 1.66 -7.92 2.32 -12 3 C-12 5.31 -12 7.62 -12 10 C-4.575 10.99 -4.575 10.99 3 12 C3 12.33 3 12.66 3 13 C-7.2531361 13.22102569 -16.89658054 12.9679704 -27 11 C-27 10.34 -27 9.68 -27 9 C-27.99 9 -28.98 9 -30 9 C-30 7.02 -30 5.04 -30 3 C-29.01 3.495 -29.01 3.495 -28 4 C-26.08671507 3.40786361 -24.19372085 2.74973566 -22.3125 2.0625 C-14.67903296 -0.42221914 -7.94314088 -0.39550909 0 0 Z " fill="#122A65" transform="translate(176,13)"/>
<path d="M0 0 C0.33 0.66 0.66 1.32 1 2 C2.98 2 4.96 2 7 2 C7 6.29 7 10.58 7 15 C1.06 15.495 1.06 15.495 -5 16 C-5 11.05 -5 6.1 -5 1 C-3.35 0.67 -1.7 0.34 0 0 Z " fill="#02135D" transform="translate(253,11)"/>
<path d="M0 0 C-0.66 0 -1.32 0 -2 0 C-1.67 1.98 -1.34 3.96 -1 6 C1.475 6.495 1.475 6.495 4 7 C3.67 7.66 3.34 8.32 3 9 C0.71484375 9.4140625 0.71484375 9.4140625 -2.0625 9.625 C-2.98160156 9.69976562 -3.90070313 9.77453125 -4.84765625 9.8515625 C-5.91306641 9.92503906 -5.91306641 9.92503906 -7 10 C-7 10.66 -7 11.32 -7 12 C-7.66 12 -8.32 12 -9 12 C-9 12.66 -9 13.32 -9 14 C-12.3 14 -15.6 14 -19 14 C-19 12.68 -19 11.36 -19 10 C-18.34 10 -17.68 10 -17 10 C-17 9.01 -17 8.02 -17 7 C-16.01 7 -15.02 7 -14 7 C-14 6.01 -14 5.02 -14 4 C-12.35 4 -10.7 4 -9 4 C-9 3.34 -9 2.68 -9 2 C-8.01 2 -7.02 2 -6 2 C-6 1.34 -6 0.68 -6 0 C-3.50907189 -1.24546405 -2.58919267 -0.7767578 0 0 Z " fill="#1C2C57" transform="translate(123,14)"/>
<path d="M0 0 C2.45862401 -0.05383848 4.9160755 -0.09359038 7.375 -0.125 C8.42300781 -0.15013672 8.42300781 -0.15013672 9.4921875 -0.17578125 C11.32897486 -0.19344267 13.16601963 -0.10303261 15 0 C15.66 0.66 16.32 1.32 17 2 C13.37 2 9.74 2 6 2 C6 4.64 6 7.28 6 10 C3.29440703 11.35279649 0.75159325 11.15906055 -2.22338867 11.24047852 C-11.76101032 11.51235004 -19.94650536 12.82463076 -29 16 C-29 15.34 -29 14.68 -29 14 C-19.22275847 9.13401174 -10.77473142 8.83837903 0 9 C0 6.03 0 3.06 0 0 Z " fill="#3B5288" transform="translate(176,2)"/>
<path d="M0 0 C1.98 0 3.96 0 6 0 C6 4.29 6 8.58 6 13 C5.34 13 4.68 13 4 13 C4.185625 13.94875 4.37125 14.8975 4.5625 15.875 C5 19 5 19 4 21 C3.01 21 2.02 21 1 21 C0.06145994 13.96094956 -0.10808032 7.09727428 0 0 Z " fill="#233C77" transform="translate(187,4)"/>
<path d="M0 0 C1.99954746 -0.04254356 4.00041636 -0.04080783 6 0 C7 1 7 1 7.09765625 3.50390625 C7.08605469 4.51324219 7.07445312 5.52257812 7.0625 6.5625 C7.05347656 7.57441406 7.04445312 8.58632813 7.03515625 9.62890625 C7.02355469 10.41136719 7.01195312 11.19382812 7 12 C4.23547967 13.38226016 1.9538637 13.09525387 -1.125 13.0625 C-2.22070312 13.05347656 -3.31640625 13.04445313 -4.4453125 13.03515625 C-5.70988281 13.01775391 -5.70988281 13.01775391 -7 13 C-6.34 12.34 -5.68 11.68 -5 11 C-3.35 11 -1.7 11 0 11 C0 7.37 0 3.74 0 0 Z " fill="#30457B" transform="translate(236,21)"/>
<path d="M0 0 C1.32 0 2.64 0 4 0 C4 0.66 4 1.32 4 2 C4.99 2 5.98 2 7 2 C7 2.99 7 3.98 7 5 C9.64 5 12.28 5 15 5 C15.33 5.99 15.66 6.98 16 8 C16.66 8 17.32 8 18 8 C18 9.32 18 10.64 18 12 C14.37 11.67 10.74 11.34 7 11 C7 10.01 7 9.02 7 8 C5.35 7.67 3.7 7.34 2 7 C1.34 4.69 0.68 2.38 0 0 Z " fill="#112A6A" transform="translate(128,15)"/>
<path d="M0 0 C5.61 0 11.22 0 17 0 C15.68 0.33 14.36 0.66 13 1 C13 5.29 13 9.58 13 14 C11.02 14 9.04 14 7 14 C6.67 10.04 6.34 6.08 6 2 C3.03 1.505 3.03 1.505 0 1 C0 0.67 0 0.34 0 0 Z " fill="#0E2863" transform="translate(286,13)"/>
<path d="M0 0 C1.98 0 3.96 0 6 0 C6 0.99 6 1.98 6 3 C6.99 3 7.98 3 9 3 C9.33 3.99 9.66 4.98 10 6 C12.00016466 7.20882096 12.00016466 7.20882096 14 8 C14 8.99 14 9.98 14 11 C16.97851562 10.90234375 16.97851562 10.90234375 19.95703125 10.8046875 C22 11 22 11 25 13 C20.05 13 15.1 13 10 13 C10 12.34 10 11.68 10 11 C9.34 11 8.68 11 8 11 C8 10.34 8 9.68 8 9 C7.01 9 6.02 9 5 9 C5 8.34 5 7.68 5 7 C3.68 6.34 2.36 5.68 1 5 C1.66 5 2.32 5 3 5 C3 4.01 3 3.02 3 2 C2.01 2 1.02 2 0 2 C0 1.34 0 0.68 0 0 Z " fill="#2C406F" transform="translate(121,15)"/>
<path d="M0 0 C1.98 0 3.96 0 6 0 C6 1.65 6 3.3 6 5 C4.02 5.99 2.04 6.98 0 8 C0 8.33 0 8.66 0 9 C-6.27 9 -12.54 9 -19 9 C-19 8.34 -19 7.68 -19 7 C-12.73 6.34 -6.46 5.68 0 5 C0 3.35 0 1.7 0 0 Z " fill="#2E457B" transform="translate(91,9)"/>
<path d="M0 0 C0.99 0 1.98 0 3 0 C3 7.26 3 14.52 3 22 C5.97 22 8.94 22 12 22 C12 22.33 12 22.66 12 23 C8.04 23 4.08 23 0 23 C0 15.41 0 7.82 0 0 Z " fill="#425D9A" transform="translate(59,5)"/>
<path d="M0 0 C2.97 0.495 2.97 0.495 6 1 C6.33 2.65 6.66 4.3 7 6 C0.1052945 8.20211126 -6.71199966 10.09819183 -14 9 C-14.66 8.34 -15.32 7.68 -16 7 C-13.69 7 -11.38 7 -9 7 C-9 6.67 -9 6.34 -9 6 C-4.545 5.505 -4.545 5.505 0 5 C0 3.35 0 1.7 0 0 Z " fill="#0E2662" transform="translate(105,9)"/>
<path d="M0 0 C0.99 0.33 1.98 0.66 3 1 C3.02683987 3.97922593 3.04676037 6.95821295 3.0625 9.9375 C3.07087891 10.78763672 3.07925781 11.63777344 3.08789062 12.51367188 C3.09111328 13.32255859 3.09433594 14.13144531 3.09765625 14.96484375 C3.10289307 15.7137085 3.10812988 16.46257324 3.11352539 17.23413086 C3 19 3 19 2 20 C7.94 20.99 7.94 20.99 14 22 C14 22.33 14 22.66 14 23 C7.07 22.505 7.07 22.505 0 22 C0 14.74 0 7.48 0 0 Z " fill="#253B70" transform="translate(62,5)"/>
<path d="M0 0 C1.65 0.33 3.3 0.66 5 1 C5 4.96 5 8.92 5 13 C2.03 12.505 2.03 12.505 -1 12 C-1.02687279 10.18757948 -1.04633715 8.37504767 -1.0625 6.5625 C-1.07410156 5.55316406 -1.08570313 4.54382813 -1.09765625 3.50390625 C-1 1 -1 1 0 0 Z " fill="#4B5F93" transform="translate(306,14)"/>
<path d="M0 0 C0.66 0 1.32 0 2 0 C2 0.66 2 1.32 2 2 C6.95 2.33 11.9 2.66 17 3 C17 3.66 17 4.32 17 5 C14.11584117 6.44207941 11.58278472 6.09394887 8.375 6.0625 C7.18648438 6.05347656 5.99796875 6.04445313 4.7734375 6.03515625 C3.85820312 6.02355469 2.94296875 6.01195312 2 6 C2 6.99 2 7.98 2 9 C2.66 9.33 3.32 9.66 4 10 C2.68 10 1.36 10 0 10 C0.020625 9.21625 0.04125 8.4325 0.0625 7.625 C0.18684063 5.01885039 0.18684063 5.01885039 -1 3 C-0.67 2.01 -0.34 1.02 0 0 Z " fill="#334B7F" transform="translate(261,15)"/>
<path d="M0 0 C0.33 0.66 0.66 1.32 1 2 C2.98 2 4.96 2 7 2 C7 5.96 7 9.92 7 14 C5.35 14 3.7 14 2 14 C2 10.37 2 6.74 2 3 C0.02 3 -1.96 3 -4 3 C-4 2.34 -4 1.68 -4 1 C-2.68 0.67 -1.36 0.34 0 0 Z " fill="#193472" transform="translate(253,11)"/>
<path d="M0 0 C-0.66 0 -1.32 0 -2 0 C-1.67 2.31 -1.34 4.62 -1 7 C-5.455 7.495 -5.455 7.495 -10 8 C-10 7.34 -10 6.68 -10 6 C-11.32 6 -12.64 6 -14 6 C-14 5.34 -14 4.68 -14 4 C-12.35 4 -10.7 4 -9 4 C-9 3.34 -9 2.68 -9 2 C-8.01 2 -7.02 2 -6 2 C-6 1.34 -6 0.68 -6 0 C-3.50907189 -1.24546405 -2.58919267 -0.7767578 0 0 Z " fill="#102559" transform="translate(123,14)"/>
<path d="M0 0 C1.79206547 0.14084796 3.58364917 0.28783701 5.375 0.4375 C6.87160156 0.55931641 6.87160156 0.55931641 8.3984375 0.68359375 C11 1 11 1 13 2 C15.0307477 2.15411106 17.06606421 2.24982453 19.1015625 2.31640625 C20.31328125 2.35830078 21.525 2.40019531 22.7734375 2.44335938 C24.04445312 2.48267578 25.31546875 2.52199219 26.625 2.5625 C27.90375 2.60568359 29.1825 2.64886719 30.5 2.69335938 C33.66655348 2.79969886 36.83318753 2.90172833 40 3 C40 3.33 40 3.66 40 4 C35.91073151 4.0750148 31.82173793 4.12900317 27.73193359 4.16479492 C26.34514373 4.17973947 24.95839993 4.20010278 23.57177734 4.22631836 C15.27422942 4.3790891 7.80933195 4.09696458 0 1 C0 0.67 0 0.34 0 0 Z " fill="#425789" transform="translate(151,24)"/>
<path d="M0 0 C4.62 0 9.24 0 14 0 C14 0.33 14 0.66 14 1 C8.06 1.495 8.06 1.495 2 2 C1.67 5.63 1.34 9.26 1 13 C1.99 13 2.98 13 4 13 C4 13.66 4 14.32 4 15 C0.04 15 -3.92 15 -8 15 C-5 13 -5 13 0 13 C0 8.71 0 4.42 0 0 Z " fill="#2D4275" transform="translate(304,13)"/>
<path d="M0 0 C1.5159375 -0.02126953 1.5159375 -0.02126953 3.0625 -0.04296875 C6.0885919 0.19445069 8.26227757 0.91425777 11 2.1875 C8 3.1875 8 3.1875 5 2.1875 C0.46395485 2.04117596 -3.57453821 2.08113455 -8 3.1875 C-8 3.8475 -8 4.5075 -8 5.1875 C-8.99 5.1875 -9.98 5.1875 -11 5.1875 C-11 5.8475 -11 6.5075 -11 7.1875 C-11.99 7.1875 -12.98 7.1875 -14 7.1875 C-13.67 5.8675 -13.34 4.5475 -13 3.1875 C-12.34 3.1875 -11.68 3.1875 -11 3.1875 C-11 2.5275 -11 1.8675 -11 1.1875 C-7.28556654 0.33399966 -3.80938062 0.02429452 0 0 Z " fill="#304F88" transform="translate(125,10.8125)"/>
<path d="M0 0 C1.134375 0.020625 2.26875 0.04125 3.4375 0.0625 C2.4475 0.3925 1.4575 0.7225 0.4375 1.0625 C0.4375 3.7025 0.4375 6.3425 0.4375 9.0625 C-2.5325 8.5675 -2.5325 8.5675 -5.5625 8.0625 C-4.54651535 0.07976343 -4.54651535 0.07976343 0 0 Z " fill="#062260" transform="translate(75.5625,17.9375)"/>
<path d="M0 0 C1.65 0 3.3 0 5 0 C5.0825 0.94875 5.165 1.8975 5.25 2.875 C5.65074923 6.10461791 5.65074923 6.10461791 8.0625 7.375 C8.701875 7.58125 9.34125 7.7875 10 8 C2.375 7.125 2.375 7.125 -1 6 C-0.67 4.02 -0.34 2.04 0 0 Z " fill="#1E387A" transform="translate(158,17)"/>
<path d="M0 0 C1.65 0 3.3 0 5 0 C5 2.97 5 5.94 5 9 C3.35 9 1.7 9 0 9 C0 6.03 0 3.06 0 0 Z " fill="#39518F" transform="translate(238,22)"/>
<path d="M0 0 C1.98 0 3.96 0 6 0 C6 1.65 6 3.3 6 5 C2.49223216 6.60355101 -0.14354879 7.22036864 -4 7 C-2.68 6.34 -1.36 5.68 0 5 C0 3.35 0 1.7 0 0 Z " fill="#405996" transform="translate(91,9)"/>
<path d="M0 0 C0.99 0.495 0.99 0.495 2 1 C4.09821215 0.60061233 4.09821215 0.60061233 6 0 C6.93423645 3.01031744 7.04449911 3.86650268 6 7 C6.66 7.33 7.32 7.66 8 8 C6.35 8 4.7 8 3 8 C3 7.34 3 6.68 3 6 C2.01 6 1.02 6 0 6 C0 4.02 0 2.04 0 0 Z " fill="#203A7C" transform="translate(146,16)"/>
<path d="M0 0 C0.99 0 1.98 0 3 0 C3 3.63 3 7.26 3 11 C4.65 11 6.3 11 8 11 C8 11.33 8 11.66 8 12 C2.25 12.125 2.25 12.125 0 11 C0 7.37 0 3.74 0 0 Z " fill="#0B2667" transform="translate(252,14)"/>
<path d="M0 0 C1.98 0 3.96 0 6 0 C6 0.99 6 1.98 6 3 C6.99 3 7.98 3 9 3 C9.33 3.99 9.66 4.98 10 6 C7.03 6 4.06 6 1 6 C1.66 5.67 2.32 5.34 3 5 C3 4.01 3 3.02 3 2 C2.01 2 1.02 2 0 2 C0 1.34 0 0.68 0 0 Z " fill="#274583" transform="translate(121,15)"/>
<path d="M0 0 C1.67542976 0.28604898 3.34385343 0.61781233 5 1 C5 3.31 5 5.62 5 8 C4.67 8 4.34 8 4 8 C4 6.35 4 4.7 4 3 C0.68539295 4.70892499 0.68539295 4.70892499 0.3125 8.125 C0.209375 9.07375 0.10625 10.0225 0 11 C0.66 11.33 1.32 11.66 2 12 C1.01 12 0.02 12 -1 12 C-1.02687279 10.18757948 -1.04633715 8.37504767 -1.0625 6.5625 C-1.07410156 5.55316406 -1.08570313 4.54382813 -1.09765625 3.50390625 C-1 1 -1 1 0 0 Z " fill="#405B89" transform="translate(306,14)"/>
<path d="M0 0 C2.97 0.495 2.97 0.495 6 1 C6 1.66 6 2.32 6 3 C6.66 3 7.32 3 8 3 C8 3.99 8 4.98 8 6 C6.02 6 4.04 6 2 6 C2 5.01 2 4.02 2 3 C1.01 2.67 0.02 2.34 -1 2 C-0.67 1.34 -0.34 0.68 0 0 Z " fill="#1C367E" transform="translate(133,14)"/>
<path d="M0 0 C1.77074917 -0.02705729 3.54161711 -0.04642195 5.3125 -0.0625 C6.29863281 -0.07410156 7.28476563 -0.08570313 8.30078125 -0.09765625 C11 0 11 0 14 1 C14 1.66 14 2.32 14 3 C12.41705218 3.05437607 10.83355744 3.09296271 9.25 3.125 C8.36828125 3.14820313 7.4865625 3.17140625 6.578125 3.1953125 C3.8864142 2.99139502 2.30095026 2.36551721 0 1 C0 0.67 0 0.34 0 0 Z " fill="#111F4B" transform="translate(227,13)"/>
<path d="M0 0 C5.94 0.33 11.88 0.66 18 1 C18 1.99 18 2.98 18 4 C15.69 4 13.38 4 11 4 C11 3.34 11 2.68 11 2 C7.37 2 3.74 2 0 2 C0 1.34 0 0.68 0 0 Z " fill="#1B3063" transform="translate(265,24)"/>
<path d="M0 0 C5.94 0 11.88 0 18 0 C18 0.33 18 0.66 18 1 C17.07767578 1.09087891 17.07767578 1.09087891 16.13671875 1.18359375 C15.32847656 1.26738281 14.52023438 1.35117188 13.6875 1.4375 C12.88699219 1.51871094 12.08648437 1.59992187 11.26171875 1.68359375 C8.83912821 1.95265693 8.83912821 1.95265693 6 3 C3.6593935 2.72230092 1.32375692 2.39460023 -1 2 C-0.67 1.34 -0.34 0.68 0 0 Z " fill="#152B5E" transform="translate(209,13)"/>
<path d="M0 0 C2.31 0.33 4.62 0.66 7 1 C7 1.99 7 2.98 7 4 C9.31 4 11.62 4 14 4 C14 4.33 14 4.66 14 5 C10.7 5 7.4 5 4 5 C4 4.34 4 3.68 4 3 C3.34 3 2.68 3 2 3 C2 2.34 2 1.68 2 1 C1.34 0.67 0.68 0.34 0 0 Z " fill="#39528A" transform="translate(127,23)"/>
<path d="M0 0 C2.97 0.495 2.97 0.495 6 1 C6 2.32 6 3.64 6 5 C4.02 5 2.04 5 0 5 C0 3.35 0 1.7 0 0 Z " fill="#0C2667" transform="translate(105,9)"/>
<path d="M0 0 C1.65 0.33 3.3 0.66 5 1 C4.01 1.495 4.01 1.495 3 2 C3 2.66 3 3.32 3 4 C2.01 4 1.02 4 0 4 C0 4.66 0 5.32 0 6 C-0.99 6 -1.98 6 -3 6 C-2.67 4.68 -2.34 3.36 -2 2 C-1.34 2 -0.68 2 0 2 C0 1.34 0 0.68 0 0 Z " fill="#284373" transform="translate(114,12)"/>
<path d="M0 0 C0 0.66 0 1.32 0 2 C1.32 2.66 2.64 3.32 4 4 C2.741875 3.87625 1.48375 3.7525 0.1875 3.625 C-0.87404297 3.52058594 -0.87404297 3.52058594 -1.95703125 3.4140625 C-4 3 -4 3 -7 1 C-4 0 -4 0 0 0 Z " fill="#192F77" transform="translate(164,21)"/>
<path d="M0 0 C0.99 0.33 1.98 0.66 3 1 C3 3.31 3 5.62 3 8 C2.01 8 1.02 8 0 8 C0 5.36 0 2.72 0 0 Z " fill="#011371" transform="translate(293,18)"/>
<path d="M0 0 C0 0.99 0 1.98 0 3 C-1.98 3.33 -3.96 3.66 -6 4 C-6 3.01 -6 2.02 -6 1 C-3 0 -3 0 0 0 Z " fill="#2C437A" transform="translate(112,20)"/>
<path d="M0 0 C0 0.66 0 1.32 0 2 C-2.8125 2.625 -2.8125 2.625 -6 3 C-6.99 2.34 -7.98 1.68 -9 1 C-5.8035914 -0.06546953 -3.34252724 -0.07427838 0 0 Z " fill="#203467" transform="translate(278,18)"/>
<path d="M0 0 C-2.90092502 1.93395001 -3.89674737 2.30131941 -7.1875 2.625 C-8.445625 2.74875 -9.70375 2.8725 -11 3 C-8.21756596 -1.17365106 -4.53441502 -0.22300402 0 0 Z " fill="#000F50" transform="translate(112,14)"/>
<path d="M0 0 C2.475 0.495 2.475 0.495 5 1 C5 1.99 5 2.98 5 4 C3.35 4 1.7 4 0 4 C0 2.68 0 1.36 0 0 Z " fill="#2D4885" transform="translate(176,4)"/>
<path d="M0 0 C0.99 0.495 0.99 0.495 2 1 C2 1.66 2 2.32 2 3 C3.98 3 5.96 3 8 3 C8 3.33 8 3.66 8 4 C5.36 4.66 2.72 5.32 0 6 C0 4.02 0 2.04 0 0 Z " fill="#051457" transform="translate(228,28)"/>
<path d="M0 0 C0.66 0 1.32 0 2 0 C2 0.66 2 1.32 2 2 C3.65 2.33 5.3 2.66 7 3 C7 3.33 7 3.66 7 4 C4.36 4 1.72 4 -1 4 C-0.67 2.68 -0.34 1.36 0 0 Z " fill="#3C548A" transform="translate(261,15)"/>
</svg>
